{
  "accessors": [
    {
      "bufferView": 2,
      "componentType": 5126,
      "count": 65532,
      "max": [
        1.6848750114440918,
        5.379701137542725,
        1.8877569437026978
      ],
      "min": [
        -1.9487700462341309,
        2.2361900806427,
        -0.4410719871520996
      ],
      "type": "VEC3"
    },
    {
      "bufferView": 2,
      "byteOffset": 786384,
      "componentType": 5126,
      "count": 65532,
      "max": [
        0.9892397522926331,
        0.9999939799308777,
        0.9999994039535522
      ],
      "min": [
        -0.9999973773956299,
        -0.9999911785125732,
        -0.9999775290489197
      ],
      "type": "VEC3"
    },
    {
      "bufferView": 3,
      "componentType": 5126,
      "count": 65532,
      "max": [
        0.7254902124404907,
        0.6196078658103943,
        0.5921568870544434,
        1.0
      ],
      "min": [
        0.003921568859368563,
        0.003921568859368563,
        0.0,
        1.0
      ],
      "type": "VEC4"
    },
    {
      "bufferView": 1,
      "componentType": 5126,
      "count": 65532,
      "max": [
        0.9735400080680847,
        0.9991329908370972
      ],
      "min": [
        0.007602999918162823,
        5.900000178371556e-05
      ],
      "type": "VEC2"
    },
    {
      "bufferView": 0,
      "componentType": 5125,
      "count": 351501,
      "type": "SCALAR"
    },
    {
      "bufferView": 2,
      "byteOffset": 1572768,
      "componentType": 5126,
      "count": 65532,
      "max": [
        1.700903058052063,
        5.7259931564331055,
        1.9459010362625122
      ],
      "min": [
        -2.3259940147399902,
        2.1723439693450928,
        -0.4936259984970093
      ],
      "type": "VEC3"
    },
    {
      "bufferView": 2,
      "byteOffset": 2359152,
      "componentType": 5126,
      "count": 65532,
      "max": [
        0.9995623826980591,
        0.9997291564941406,
        0.9999994039535522
      ],
      "min": [
        -0.9999875426292419,
        -0.9999864101409912,
        -0.9999898076057434
      ],
      "type": "VEC3"
    },
    {
      "bufferView": 3,
      "byteOffset": 1048512,
      "componentType": 5126,
      "count": 65532,
      "max": [
        0.7215686440467834,
        0.686274528503418,
        0.6627451181411743,
        1.0
      ],
      "min": [
        0.003921568859368563,
        0.003921568859368563,
        0.003921568859368563,
        1.0
      ],
      "type": "VEC4"
    },
    {
      "bufferView": 1,
      "byteOffset": 524256,
      "componentType": 5126,
      "count": 65532,
      "max": [
        0.9800310134887695,
        0.999983012676239
      ],
      "min": [
        5.6000000768108293e-05,
        1.5999999959603883e-05
      ],
      "type": "VEC2"
    },
    {
      "bufferView": 0,
      "byteOffset": 1406004,
      "componentType": 5125,
      "count": 326778,
      "type": "SCALAR"
    },
    {
      "bufferView": 2,
      "byteOffset": 3145536,
      "componentType": 5126,
      "count": 20675,
      "max": [
        1.4025700092315674,
        5.742509841918945,
        1.9564180374145508
      ],
      "min": [
        -2.3259940147399902,
        2.6593170166015625,
        -0.36304301023483276
      ],
      "type": "VEC3"
    },
    {
      "bufferView": 2,
      "byteOffset": 3393636,
      "componentType": 5126,
      "count": 20675,
      "max": [
        0.9952844977378845,
        0.9995960593223572,
        0.9999953508377075
      ],
      "min": [
        -0.9999458193778992,
        -0.9999864101409912,
        -0.9999212622642517
      ],
      "type": "VEC3"
    },
    {
      "bufferView": 3,
      "byteOffset": 2097024,
      "componentType": 5126,
      "count": 20675,
      "max": [
        0.6313725709915161,
        0.6666666865348816,
        0.6745098233222961,
        1.0
      ],
      "min": [
        0.007843137718737125,
        0.003921568859368563,
        0.003921568859368563,
        1.0
      ],
      "type": "VEC4"
    },
    {
      "bufferView": 1,
      "byteOffset": 1048512,
      "componentType": 5126,
      "count": 20675,
      "max": [
        0.9713829755783081,
        0.9999639987945557
      ],
      "min": [
        0.007600000128149986,
        0.005187999922782183
      ],
      "type": "VEC2"
    },
    {
      "bufferView": 0,
      "byteOffset": 2713116,
      "componentType": 5125,
      "count": 71721,
      "type": "SCALAR"
    }
  ],
  "asset": {
    "extras": {
      "author": "Geoffrey Marchal (https://sketchfab.com/geoffreymarchal)",
      "license": "CC-BY-NC-SA-4.0 (http://creativecommons.org/licenses/by-nc-sa/4.0/)",
      "source": "https://sketchfab.com/3d-models/mermaid-5db3c4c133904df6856b8323eea7d85a",
      "title": "Mermaid"
    },
    "generator": "Sketchfab-15.12.0",
    "version": "2.0"
  },
  "bufferViews": [
    {
      "buffer": 0,
      "byteLength": 3000000,
      "name": "floatBufferViews",
      "target": 34963
    },
    {
      "buffer": 0,
      "byteLength": 1213912,
      "byteOffset": 3000000,
      "byteStride": 8,
      "name": "floatBufferViews",
      "target": 34962
    },
    {
      "buffer": 0,
      "byteLength": 3641736,
      "byteOffset": 4213912,
      "byteStride": 12,
      "name": "floatBufferViews",
      "target": 34962
    },
    {
      "buffer": 0,
      "byteLength": 2427824,
      "byteOffset": 7855648,
      "byteStride": 16,
      "name": "floatBufferViews",
      "target": 34962
    }
  ],
  "buffers": [
    {
      "byteLength": 10283472,
      "uri": "scene.bin"
    }
  ],
  "extensionsRequired": [
    "KHR_materials_pbrSpecularGlossiness"
  ],
  "extensionsUsed": [
    "KHR_materials_pbrSpecularGlossiness"
  ],
  "images": [
    {
      "uri": "textures/TheMermaid_diffuse.jpeg"
    },
    {
      "uri": "textures/TheMermaid_occlusion.png"
    }
  ],
  "materials": [
    {
      "doubleSided": true,
      "extensions": {
        "KHR_materials_pbrSpecularGlossiness": {
          "diffuseFactor": [
            1.0,
            1.0,
            1.0,
            1.0
          ],
          "diffuseTexture": {
            "index": 0
          },
          "glossinessFactor": 0.0,
          "specularFactor": [
            1.0,
            1.0,
            1.0
          ],
          "specularGlossinessTexture": {
            "index": 0
          }
        }
      },
      "name": "TheMermaid",
      "occlusionTexture": {
        "index": 1
      }
    }
  ],
  "meshes": [
    {
      "name": "Object_0",
      "primitives": [
        {
          "attributes": {
            "COLOR_0": 2,
            "NORMAL": 1,
            "POSITION": 0,
            "TEXCOORD_0": 3
          },
          "indices": 4,
          "material": 0,
          "mode": 4
        }
      ]
    },
    {
      "name": "Object_1",
      "primitives": [
        {
          "attributes": {
            "COLOR_0": 7,
            "NORMAL": 6,
            "POSITION": 5,
            "TEXCOORD_0": 8
          },
          "indices": 9,
          "material": 0,
          "mode": 4
        }
      ]
    },
    {
      "name": "Object_2",
      "primitives": [
        {
          "attributes": {
            "COLOR_0": 12,
            "NORMAL": 11,
            "POSITION": 10,
            "TEXCOORD_0": 13
          },
          "indices": 14,
          "material": 0,
          "mode": 4
        }
      ]
    }
  ],
  "nodes": [
    {
      "children": [
        1
      ],
      "matrix": [
        -0.2126447856426239,
        -0.9766201972961426,
        -0.03154611214995406,
        0.0,
        0.9700701236724854,
        -0.2071246951818466,
        -0.12674124538898474,
        0.0,
        0.11724408715963364,
        -0.0575528070330622,
        0.9914340376853943,
        0.0,
        0.0,
        0.0,
        0.0,
        1.0
      ],
      "name": "Sketchfab_model"
    },
    {
      "children": [
        2,
        3,
        4
      ],
      "name": "TheMermaid.obj.cleaner.materialmerger.gles"
    },
    {
      "mesh": 0,
      "name": "Object_2"
    },
    {
      "mesh": 1,
      "name": "Object_3"
    },
    {
      "mesh": 2,
      "name": "Object_4"
    }
  ],
  "samplers": [
    {
      "magFilter": 9729,
      "minFilter": 9987,
      "wrapS": 10497,
      "wrapT": 10497
    }
  ],
  "scene": 0,
  "scenes": [
    {
      "name": "Sketchfab_Scene",
      "nodes": [
        0
      ]
    }
  ],
  "textures": [
    {
      "sampler": 0,
      "source": 0
    },
    {
      "sampler": 0,
      "source": 1
    }
  ]
}
