{
  "accessors": [
    {
      "bufferView": 2,
      "componentType": 5126,
      "count": 65532,
      "max": [
        17255.859375,
        23136.81640625,
        20780.98828125
      ],
      "min": [
        490.4755859375,
        4177.4052734375,
        3286.75830078125
      ],
      "type": "VEC3"
    },
    {
      "bufferView": 2,
      "byteOffset": 786384,
      "componentType": 5126,
      "count": 65532,
      "max": [
        0.9999892115592957,
        0.9999590516090393,
        0.9998747706413269
      ],
      "min": [
        -0.9999595880508423,
        -0.9999995231628418,
        -0.9999444484710693
      ],
      "type": "VEC3"
    },
    {
      "bufferView": 1,
      "componentType": 5126,
      "count": 65532,
      "max": [
        0.9980059862136841,
        0.9980059862136841
      ],
      "min": [
        0.0039889998733997345,
        0.0039889998733997345
      ],
      "type": "VEC2"
    },
    {
      "bufferView": 0,
      "componentType": 5125,
      "count": 344430,
      "type": "SCALAR"
    },
    {
      "bufferView": 2,
      "byteOffset": 1572768,
      "componentType": 5126,
      "count": 65532,
      "max": [
        14279.29296875,
        23161.37890625,
        21552.578125
      ],
      "min": [
        0.0,
        0.0,
        1590.7958984375
      ],
      "type": "VEC3"
    },
    {
      "bufferView": 2,
      "byteOffset": 2359152,
      "componentType": 5126,
      "count": 65532,
      "max": [
        0.9999147057533264,
        0.9999590516090393,
        0.9999698400497437
      ],
      "min": [
        -0.9999743700027466,
        -0.9999997019767761,
        -0.999928891658783
      ],
      "type": "VEC3"
    },
    {
      "bufferView": 1,
      "byteOffset": 524256,
      "componentType": 5126,
      "count": 65532,
      "max": [
        0.9980059862136841,
        0.9980059862136841
      ],
      "min": [
        0.0039889998733997345,
        0.0039889998733997345
      ],
      "type": "VEC2"
    },
    {
      "bufferView": 0,
      "byteOffset": 1377720,
      "componentType": 5125,
      "count": 324420,
      "type": "SCALAR"
    },
    {
      "bufferView": 2,
      "byteOffset": 3145536,
      "componentType": 5126,
      "count": 65532,
      "max": [
        17474.544921875,
        23166.78515625,
        20714.58984375
      ],
      "min": [
        1182.328125,
        21.2421875,
        1321.138671875
      ],
      "type": "VEC3"
    },
    {
      "bufferView": 2,
      "byteOffset": 3931920,
      "componentType": 5126,
      "count": 65532,
      "max": [
        0.9999587535858154,
        0.999993085861206,
        0.999977707862854
      ],
      "min": [
        -0.999999463558197,
        -0.9999971389770508,
        -0.999971866607666
      ],
      "type": "VEC3"
    },
    {
      "bufferView": 1,
      "byteOffset": 1048512,
      "componentType": 5126,
      "count": 65532,
      "max": [
        0.9980059862136841,
        0.9980059862136841
      ],
      "min": [
        0.0039889998733997345,
        0.0039889998733997345
      ],
      "type": "VEC2"
    },
    {
      "bufferView": 0,
      "byteOffset": 2675400,
      "componentType": 5125,
      "count": 352722,
      "type": "SCALAR"
    },
    {
      "bufferView": 2,
      "byteOffset": 4718304,
      "componentType": 5126,
      "count": 24335,
      "max": [
        17469.5078125,
        23141.08984375,
        20768.6015625
      ],
      "min": [
        14.6328125,
        11357.6142578125,
        0.0
      ],
      "type": "VEC3"
    },
    {
      "bufferView": 2,
      "byteOffset": 5010324,
      "componentType": 5126,
      "count": 24335,
      "max": [
        0.9999980330467224,
        0.9999590516090393,
        0.9999188184738159
      ],
      "min": [
        -0.9999738931655884,
        -0.999998927116394,
        -0.9999417066574097
      ],
      "type": "VEC3"
    },
    {
      "bufferView": 1,
      "byteOffset": 1572768,
      "componentType": 5126,
      "count": 24335,
      "max": [
        0.9980059862136841,
        0.9978809952735901
      ],
      "min": [
        0.0039889998733997345,
        0.0039889998733997345
      ],
      "type": "VEC2"
    },
    {
      "bufferView": 0,
      "byteOffset": 4086288,
      "componentType": 5125,
      "count": 123861,
      "type": "SCALAR"
    }
  ],
  "asset": {
    "extras": {
      "author": "Geoffrey Marchal (https://sketchfab.com/geoffreymarchal)",
      "license": "CC-BY-NC-SA-4.0 (http://creativecommons.org/licenses/by-nc-sa/4.0/)",
      "source": "https://sketchfab.com/3d-models/baptismal-angel-kneeling-f45f01c63e514d3bad846e82af640f33",
      "title": "Baptismal Angel kneeling"
    },
    "generator": "Sketchfab-15.12.0",
    "version": "2.0"
  },
  "bufferViews": [
    {
      "buffer": 0,
      "byteLength": 4581732,
      "name": "floatBufferViews",
      "target": 34963
    },
    {
      "buffer": 0,
      "byteLength": 1767448,
      "byteOffset": 4581732,
      "byteStride": 8,
      "name": "floatBufferViews",
      "target": 34962
    },
    {
      "buffer": 0,
      "byteLength": 5302344,
      "byteOffset": 6349180,
      "byteStride": 12,
      "name": "floatBufferViews",
      "target": 34962
    }
  ],
  "buffers": [
    {
      "byteLength": 11651524,
      "uri": "scene.bin"
    }
  ],
  "extensionsUsed": [
    "KHR_materials_specular"
  ],
  "images": [
    {
      "uri": "textures/Material_0_baseColor.jpeg"
    },
    {
      "uri": "textures/Material_0_metallicRoughness.png"
    },
    {
      "uri": "textures/Material_0_specularf0.png"
    }
  ],
  "materials": [
    {
      "doubleSided": true,
      "extensions": {
        "KHR_materials_specular": {
          "specularColorFactor": [
            1.0,
            1.0,
            1.0
          ],
          "specularFactor": 1.0,
          "specularTexture": {
            "index": 2
          }
        }
      },
      "name": "Material_0",
      "pbrMetallicRoughness": {
        "baseColorTexture": {
          "index": 0
        },
        "metallicFactor": 0.0,
        "metallicRoughnessTexture": {
          "index": 1
        }
      }
    }
  ],
  "meshes": [
    {
      "name": "Object_0",
      "primitives": [
        {
          "attributes": {
            "NORMAL": 1,
            "POSITION": 0,
            "TEXCOORD_0": 2
          },
          "indices": 3,
          "material": 0,
          "mode": 4
        }
      ]
    },
    {
      "name": "Object_1",
      "primitives": [
        {
          "attributes": {
            "NORMAL": 5,
            "POSITION": 4,
            "TEXCOORD_0": 6
          },
          "indices": 7,
          "material": 0,
          "mode": 4
        }
      ]
    },
    {
      "name": "Object_2",
      "primitives": [
        {
          "attributes": {
            "NORMAL": 9,
            "POSITION": 8,
            "TEXCOORD_0": 10
          },
          "indices": 11,
          "material": 0,
          "mode": 4
        }
      ]
    },
    {
      "name": "Object_3",
      "primitives": [
        {
          "attributes": {
            "NORMAL": 13,
            "POSITION": 12,
            "TEXCOORD_0": 14
          },
          "indices": 15,
          "material": 0,
          "mode": 4
        }
      ]
    }
  ],
  "nodes": [
    {
      "children": [
        1
      ],
      "matrix": [
        -0.895278811454773,
        9.892227137486546e-17,
        -0.4455063045024872,
        0.0,
        0.0,
        -1.0,
        -2.220446049250313e-16,
        0.0,
        -0.4455063045024872,
        -1.9879182998722665e-16,
        0.895278811454773,
        0.0,
        0.0,
        0.0,
        0.0,
        1.0
      ],
      "name": "Sketchfab_model"
    },
    {
      "children": [
        2,
        3,
        4,
        5
      ],
      "matrix": [
        1.0,
        0.0,
        0.0,
        0.0,
        0.0,
        1.0,
        0.0,
        0.0,
        0.0,
        0.0,
        1.0,
        0.0,
        -7481.1865234375,
        -6815.169921875,
        -10949.689453125,
        1.0
      ],
      "name": "angelyy.obj.cleaner.gles"
    },
    {
      "mesh": 0,
      "name": "Object_2"
    },
    {
      "mesh": 1,
      "name": "Object_3"
    },
    {
      "mesh": 2,
      "name": "Object_4"
    },
    {
      "mesh": 3,
      "name": "Object_5"
    }
  ],
  "samplers": [
    {
      "magFilter": 9729,
      "minFilter": 9987,
      "wrapS": 10497,
      "wrapT": 10497
    }
  ],
  "scene": 0,
  "scenes": [
    {
      "name": "Sketchfab_Scene",
      "nodes": [
        0
      ]
    }
  ],
  "textures": [
    {
      "sampler": 0,
      "source": 0
    },
    {
      "sampler": 0,
      "source": 1
    },
    {
      "sampler": 0,
      "source": 2
    }
  ]
}
