{
  "accessors": [
    {
      "bufferView": 2,
      "componentType": 5126,
      "count": 65532,
      "max": [
        0.46020200848579407,
        -1.7837849855422974,
        0.3121989965438843
      ],
      "min": [
        -1.6541780233383179,
        -5.3236541748046875,
        -1.9270390272140503
      ],
      "type": "VEC3"
    },
    {
      "bufferView": 2,
      "byteOffset": 786384,
      "componentType": 5126,
      "count": 65532,
      "max": [
        0.9999889731407166,
        0.9992354512214661,
        0.999970018863678
      ],
      "min": [
        -0.9999974966049194,
        -0.9998118877410889,
        -0.9999604821205139
      ],
      "type": "VEC3"
    },
    {
      "bufferView": 1,
      "componentType": 5126,
      "count": 65532,
      "max": [
        0.9996830224990845,
        0.9998610019683838
      ],
      "min": [
        0.00013099999341648072,
        0.00030700000934302807
      ],
      "type": "VEC2"
    },
    {
      "bufferView": 0,
      "componentType": 5125,
      "count": 293019,
      "type": "SCALAR"
    },
    {
      "bufferView": 2,
      "byteOffset": 1572768,
      "componentType": 5126,
      "count": 65532,
      "max": [
        0.44373300671577454,
        -1.7831840515136719,
        0.31272000074386597
      ],
      "min": [
        -1.654837965965271,
        -5.335457801818848,
        -1.9298100471496582
      ],
      "type": "VEC3"
    },
    {
      "bufferView": 2,
      "byteOffset": 2359152,
      "componentType": 5126,
      "count": 65532,
      "max": [
        0.9999954700469971,
        0.9999213814735413,
        0.9999985694885254
      ],
      "min": [
        -0.9999773502349854,
        -0.9997431039810181,
        -0.9999998807907104
      ],
      "type": "VEC3"
    },
    {
      "bufferView": 1,
      "byteOffset": 524256,
      "componentType": 5126,
      "count": 65532,
      "max": [
        0.9994230270385742,
        0.9998639822006226
      ],
      "min": [
        0.0001340000017080456,
        0.00036899998667649925
      ],
      "type": "VEC2"
    },
    {
      "bufferView": 0,
      "byteOffset": 1172076,
      "componentType": 5125,
      "count": 269925,
      "type": "SCALAR"
    },
    {
      "bufferView": 2,
      "byteOffset": 3145536,
      "componentType": 5126,
      "count": 65532,
      "max": [
        0.45761799812316895,
        -1.7825219631195068,
        0.8536249995231628
      ],
      "min": [
        -1.667052984237671,
        -5.358270168304443,
        -1.937229037284851
      ],
      "type": "VEC3"
    },
    {
      "bufferView": 2,
      "byteOffset": 3931920,
      "componentType": 5126,
      "count": 65532,
      "max": [
        0.9999893307685852,
        0.9999873638153076,
        0.9999060034751892
      ],
      "min": [
        -0.9998922348022461,
        -0.9998118877410889,
        -0.9999802112579346
      ],
      "type": "VEC3"
    },
    {
      "bufferView": 1,
      "byteOffset": 1048512,
      "componentType": 5126,
      "count": 65532,
      "max": [
        0.9997829794883728,
        0.9998660087585449
      ],
      "min": [
        0.00013000000035390258,
        0.00021499999274965376
      ],
      "type": "VEC2"
    },
    {
      "bufferView": 0,
      "byteOffset": 2251776,
      "componentType": 5125,
      "count": 179913,
      "type": "SCALAR"
    },
    {
      "bufferView": 2,
      "byteOffset": 4718304,
      "componentType": 5126,
      "count": 56214,
      "max": [
        1.101099967956543,
        -1.7801200151443481,
        0.7479749917984009
      ],
      "min": [
        -2.1614620685577393,
        -5.371068000793457,
        -1.9482049942016602
      ],
      "type": "VEC3"
    },
    {
      "bufferView": 2,
      "byteOffset": 5392872,
      "componentType": 5126,
      "count": 56214,
      "max": [
        0.9999389052391052,
        0.9992354512214661,
        0.9999797344207764
      ],
      "min": [
        -0.999925971031189,
        -0.9997431039810181,
        -0.9999372363090515
      ],
      "type": "VEC3"
    },
    {
      "bufferView": 1,
      "byteOffset": 1572768,
      "componentType": 5126,
      "count": 56214,
      "max": [
        0.9997379779815674,
        0.9998700022697449
      ],
      "min": [
        0.00018200000340584666,
        0.00020799999765586108
      ],
      "type": "VEC2"
    },
    {
      "bufferView": 0,
      "byteOffset": 2971428,
      "componentType": 5125,
      "count": 101778,
      "type": "SCALAR"
    }
  ],
  "asset": {
    "extras": {
      "author": "Geoffrey Marchal (https://sketchfab.com/geoffreymarchal)",
      "license": "CC-BY-NC-SA-4.0 (http://creativecommons.org/licenses/by-nc-sa/4.0/)",
      "source": "https://sketchfab.com/3d-models/siren-fc2e5c773d1c49b19294cd87de5d3795",
      "title": "Siren"
    },
    "generator": "Sketchfab-15.12.0",
    "version": "2.0"
  },
  "bufferViews": [
    {
      "buffer": 0,
      "byteLength": 3378540,
      "name": "floatBufferViews",
      "target": 34963
    },
    {
      "buffer": 0,
      "byteLength": 2022480,
      "byteOffset": 3378540,
      "byteStride": 8,
      "name": "floatBufferViews",
      "target": 34962
    },
    {
      "buffer": 0,
      "byteLength": 6067440,
      "byteOffset": 5401020,
      "byteStride": 12,
      "name": "floatBufferViews",
      "target": 34962
    }
  ],
  "buffers": [
    {
      "byteLength": 11468460,
      "uri": "scene.bin"
    }
  ],
  "extensionsUsed": [
    "KHR_materials_specular"
  ],
  "images": [
    {
      "uri": "textures/siren_-_CleanUp_-_LowPoly_baseColor.jpeg"
    },
    {
      "uri": "textures/siren_-_CleanUp_-_LowPoly_specularf0.png"
    }
  ],
  "materials": [
    {
      "doubleSided": true,
      "extensions": {
        "KHR_materials_specular": {
          "specularColorFactor": [
            1.0,
            1.0,
            1.0
          ],
          "specularFactor": 1.0,
          "specularTexture": {
            "index": 1
          }
        }
      },
      "name": "siren_-_CleanUp_-_LowPoly",
      "pbrMetallicRoughness": {
        "baseColorTexture": {
          "index": 0
        },
        "metallicFactor": 0.0
      }
    }
  ],
  "meshes": [
    {
      "name": "Object_0",
      "primitives": [
        {
          "attributes": {
            "NORMAL": 1,
            "POSITION": 0,
            "TEXCOORD_0": 2
          },
          "indices": 3,
          "material": 0,
          "mode": 4
        }
      ]
    },
    {
      "name": "Object_1",
      "primitives": [
        {
          "attributes": {
            "NORMAL": 5,
            "POSITION": 4,
            "TEXCOORD_0": 6
          },
          "indices": 7,
          "material": 0,
          "mode": 4
        }
      ]
    },
    {
      "name": "Object_2",
      "primitives": [
        {
          "attributes": {
            "NORMAL": 9,
            "POSITION": 8,
            "TEXCOORD_0": 10
          },
          "indices": 11,
          "material": 0,
          "mode": 4
        }
      ]
    },
    {
      "name": "Object_3",
      "primitives": [
        {
          "attributes": {
            "NORMAL": 13,
            "POSITION": 12,
            "TEXCOORD_0": 14
          },
          "indices": 15,
          "material": 0,
          "mode": 4
        }
      ]
    }
  ],
  "nodes": [
    {
      "children": [
        1
      ],
      "matrix": [
        -0.9999999403953552,
        -1.6819658412714407e-05,
        -0.00037108591641299427,
        0.0,
        2.1295454644132406e-05,
        -0.9999272227287292,
        -0.012064641341567262,
        0.0,
        -0.00037085599615238607,
        -0.012064647860825284,
        0.9999271631240845,
        0.0,
        0.0,
        0.0,
        0.0,
        1.0
      ],
      "name": "Sketchfab_model"
    },
    {
      "children": [
        2,
        3,
        4,
        5
      ],
      "name": "siren_-_CleanUp_-_LowPoly.obj.cleaner.materialmerger.gles"
    },
    {
      "mesh": 0,
      "name": "Object_2"
    },
    {
      "mesh": 1,
      "name": "Object_3"
    },
    {
      "mesh": 2,
      "name": "Object_4"
    },
    {
      "mesh": 3,
      "name": "Object_5"
    }
  ],
  "samplers": [
    {
      "magFilter": 9729,
      "minFilter": 9987,
      "wrapS": 10497,
      "wrapT": 10497
    }
  ],
  "scene": 0,
  "scenes": [
    {
      "name": "Sketchfab_Scene",
      "nodes": [
        0
      ]
    }
  ],
  "textures": [
    {
      "sampler": 0,
      "source": 0
    },
    {
      "sampler": 0,
      "source": 1
    }
  ]
}
