{
  "accessors": [
    {
      "bufferView": 2,
      "componentType": 5126,
      "count": 65532,
      "max": [
        15616.025390625,
        12720.84765625,
        -5647.58154296875
      ],
      "min": [
        -1176.68212890625,
        5086.205078125,
        -20129.791015625
      ],
      "type": "VEC3"
    },
    {
      "bufferView": 2,
      "byteOffset": 786384,
      "componentType": 5126,
      "count": 65532,
      "max": [
        0.999758780002594,
        0.9999663829803467,
        0.9999980330467224
      ],
      "min": [
        -0.9999964833259583,
        -0.9998072981834412,
        -0.9999867081642151
      ],
      "type": "VEC3"
    },
    {
      "bufferView": 1,
      "componentType": 5126,
      "count": 65532,
      "max": [
        0.998000979423523,
        0.9980049729347229
      ],
      "min": [
        0.003998999949544668,
        0.0039900001138448715
      ],
      "type": "VEC2"
    },
    {
      "bufferView": 0,
      "componentType": 5125,
      "count": 350964,
      "type": "SCALAR"
    },
    {
      "bufferView": 2,
      "byteOffset": 1572768,
      "componentType": 5126,
      "count": 65532,
      "max": [
        15512.3564453125,
        14834.0224609375,
        -2812.2646484375
      ],
      "min": [
        -1179.0625,
        3068.28125,
        -20100.58984375
      ],
      "type": "VEC3"
    },
    {
      "bufferView": 2,
      "byteOffset": 2359152,
      "componentType": 5126,
      "count": 65532,
      "max": [
        0.9995607733726501,
        0.9999962449073792,
        0.9998540878295898
      ],
      "min": [
        -0.9999584555625916,
        -0.999996542930603,
        -0.9999926090240479
      ],
      "type": "VEC3"
    },
    {
      "bufferView": 1,
      "byteOffset": 524256,
      "componentType": 5126,
      "count": 65532,
      "max": [
        0.9972509741783142,
        0.9953870177268982
      ],
      "min": [
        0.003998999949544668,
        0.0039900001138448715
      ],
      "type": "VEC2"
    },
    {
      "bufferView": 0,
      "byteOffset": 1403856,
      "componentType": 5125,
      "count": 357753,
      "type": "SCALAR"
    },
    {
      "bufferView": 2,
      "byteOffset": 3145536,
      "componentType": 5126,
      "count": 65532,
      "max": [
        15619.9462890625,
        14835.1552734375,
        -2856.3349609375
      ],
      "min": [
        3039.3349609375,
        3076.7744140625,
        -20128.17578125
      ],
      "type": "VEC3"
    },
    {
      "bufferView": 2,
      "byteOffset": 3931920,
      "componentType": 5126,
      "count": 65532,
      "max": [
        0.9997707009315491,
        0.9998229742050171,
        0.9997444152832031
      ],
      "min": [
        -0.9999751448631287,
        -0.9999949336051941,
        -0.9999904632568359
      ],
      "type": "VEC3"
    },
    {
      "bufferView": 1,
      "byteOffset": 1048512,
      "componentType": 5126,
      "count": 65532,
      "max": [
        0.998000979423523,
        0.9962599873542786
      ],
      "min": [
        0.003998999949544668,
        0.0039900001138448715
      ],
      "type": "VEC2"
    },
    {
      "bufferView": 0,
      "byteOffset": 2834868,
      "componentType": 5125,
      "count": 346299,
      "type": "SCALAR"
    },
    {
      "bufferView": 2,
      "byteOffset": 4718304,
      "componentType": 5126,
      "count": 24020,
      "max": [
        11904.19140625,
        13994.38671875,
        -11344.630859375
      ],
      "min": [
        -1177.06298828125,
        6050.818359375,
        -15849.23046875
      ],
      "type": "VEC3"
    },
    {
      "bufferView": 2,
      "byteOffset": 5006544,
      "componentType": 5126,
      "count": 24020,
      "max": [
        0.9999945759773254,
        0.9999962449073792,
        0.9998830556869507
      ],
      "min": [
        -0.9999606013298035,
        -0.9997814893722534,
        -0.9999122023582458
      ],
      "type": "VEC3"
    },
    {
      "bufferView": 1,
      "byteOffset": 1572768,
      "componentType": 5126,
      "count": 24020,
      "max": [
        0.9971259832382202,
        0.9963849782943726
      ],
      "min": [
        0.003998999949544668,
        0.0059449998661875725
      ],
      "type": "VEC2"
    },
    {
      "bufferView": 0,
      "byteOffset": 4220064,
      "componentType": 5125,
      "count": 110673,
      "type": "SCALAR"
    }
  ],
  "asset": {
    "extras": {
      "author": "Geoffrey Marchal (https://sketchfab.com/geoffreymarchal)",
      "license": "CC-BY-NC-SA-4.0 (http://creativecommons.org/licenses/by-nc-sa/4.0/)",
      "source": "https://sketchfab.com/3d-models/the-dying-gaul-a5f7d0f2934344e68a4e0734359d069e",
      "title": "The Dying Gaul"
    },
    "generator": "Sketchfab-15.12.0",
    "version": "2.0"
  },
  "bufferViews": [
    {
      "buffer": 0,
      "byteLength": 4662756,
      "name": "floatBufferViews",
      "target": 34963
    },
    {
      "buffer": 0,
      "byteLength": 1764928,
      "byteOffset": 4662756,
      "byteStride": 8,
      "name": "floatBufferViews",
      "target": 34962
    },
    {
      "buffer": 0,
      "byteLength": 5294784,
      "byteOffset": 6427684,
      "byteStride": 12,
      "name": "floatBufferViews",
      "target": 34962
    }
  ],
  "buffers": [
    {
      "byteLength": 11722468,
      "uri": "scene.bin"
    }
  ],
  "images": [
    {
      "uri": "textures/Material_0_baseColor.jpeg"
    }
  ],
  "materials": [
    {
      "doubleSided": true,
      "name": "Material_0",
      "pbrMetallicRoughness": {
        "baseColorTexture": {
          "index": 0
        },
        "metallicFactor": 0.0,
        "roughnessFactor": 0.6
      }
    }
  ],
  "meshes": [
    {
      "name": "Object_0",
      "primitives": [
        {
          "attributes": {
            "NORMAL": 1,
            "POSITION": 0,
            "TEXCOORD_0": 2
          },
          "indices": 3,
          "material": 0,
          "mode": 4
        }
      ]
    },
    {
      "name": "Object_1",
      "primitives": [
        {
          "attributes": {
            "NORMAL": 5,
            "POSITION": 4,
            "TEXCOORD_0": 6
          },
          "indices": 7,
          "material": 0,
          "mode": 4
        }
      ]
    },
    {
      "name": "Object_2",
      "primitives": [
        {
          "attributes": {
            "NORMAL": 9,
            "POSITION": 8,
            "TEXCOORD_0": 10
          },
          "indices": 11,
          "material": 0,
          "mode": 4
        }
      ]
    },
    {
      "name": "Object_3",
      "primitives": [
        {
          "attributes": {
            "NORMAL": 13,
            "POSITION": 12,
            "TEXCOORD_0": 14
          },
          "indices": 15,
          "material": 0,
          "mode": 4
        }
      ]
    }
  ],
  "nodes": [
    {
      "children": [
        1
      ],
      "matrix": [
        8.179032065592194e-05,
        -0.0001393569177464693,
        1.554864975703243e-05,
        0.0,
        -6.907728470259208e-05,
        -2.437915977319486e-05,
        0.00014486460086119302,
        0.0,
        -0.00012202638772830076,
        -7.960574262066759e-05,
        -7.158389613986812e-05,
        0.0,
        0.0,
        0.0,
        0.0,
        1.0
      ],
      "name": "Sketchfab_model"
    },
    {
      "children": [
        2,
        3,
        4,
        5
      ],
      "name": "gaulkk.obj.cleaner.gles"
    },
    {
      "mesh": 0,
      "name": "Object_2"
    },
    {
      "mesh": 1,
      "name": "Object_3"
    },
    {
      "mesh": 2,
      "name": "Object_4"
    },
    {
      "mesh": 3,
      "name": "Object_5"
    }
  ],
  "samplers": [
    {
      "magFilter": 9729,
      "minFilter": 9987,
      "wrapS": 10497,
      "wrapT": 10497
    }
  ],
  "scene": 0,
  "scenes": [
    {
      "name": "Sketchfab_Scene",
      "nodes": [
        0
      ]
    }
  ],
  "textures": [
    {
      "sampler": 0,
      "source": 0
    }
  ]
}
