{
  "accessors": [
    {
      "bufferView": 2,
      "componentType": 5126,
      "count": 65532,
      "max": [
        13.662677764892578,
        19.895221710205078,
        10.239448547363281
      ],
      "min": [
        3.975963592529297,
        1.3530845642089844,
        0.540071964263916
      ],
      "type": "VEC3"
    },
    {
      "bufferView": 2,
      "byteOffset": 786384,
      "componentType": 5126,
      "count": 65532,
      "max": [
        0.9999352097511292,
        0.999700129032135,
        0.9999781250953674
      ],
      "min": [
        -0.9999889731407166,
        -0.9999579787254333,
        -0.9999440908432007
      ],
      "type": "VEC3"
    },
    {
      "bufferView": 1,
      "componentType": 5126,
      "count": 65532,
      "max": [
        0.997967004776001,
        0.9979709982872009
      ],
      "min": [
        0.00406600022688508,
        0.004058999940752983
      ],
      "type": "VEC2"
    },
    {
      "bufferView": 0,
      "componentType": 5125,
      "count": 342174,
      "type": "SCALAR"
    },
    {
      "bufferView": 2,
      "byteOffset": 1572768,
      "componentType": 5126,
      "count": 65532,
      "max": [
        13.686054229736328,
        19.925460815429688,
        9.657632827758789
      ],
      "min": [
        1.6560044288635254,
        1.0407085418701172,
        0.0
      ],
      "type": "VEC3"
    },
    {
      "bufferView": 2,
      "byteOffset": 2359152,
      "componentType": 5126,
      "count": 65532,
      "max": [
        0.9999865293502808,
        0.9996780157089233,
        0.9999991059303284
      ],
      "min": [
        -0.9999948740005493,
        -0.9999989867210388,
        -0.9999788999557495
      ],
      "type": "VEC3"
    },
    {
      "bufferView": 1,
      "byteOffset": 524256,
      "componentType": 5126,
      "count": 65532,
      "max": [
        0.997967004776001,
        0.997717022895813
      ],
      "min": [
        0.00406600022688508,
        0.004058999940752983
      ],
      "type": "VEC2"
    },
    {
      "bufferView": 0,
      "byteOffset": 1368696,
      "componentType": 5125,
      "count": 352287,
      "type": "SCALAR"
    },
    {
      "bufferView": 2,
      "byteOffset": 3145536,
      "componentType": 5126,
      "count": 65532,
      "max": [
        13.170061111450195,
        29.186323165893555,
        9.628225326538086
      ],
      "min": [
        0.0,
        1.602996826171875,
        0.0006422996520996094
      ],
      "type": "VEC3"
    },
    {
      "bufferView": 2,
      "byteOffset": 3931920,
      "componentType": 5126,
      "count": 65532,
      "max": [
        0.9999909996986389,
        0.9998296499252319,
        0.99997478723526
      ],
      "min": [
        -0.9999893307685852,
        -0.9999755024909973,
        -0.9999788999557495
      ],
      "type": "VEC3"
    },
    {
      "bufferView": 1,
      "byteOffset": 1048512,
      "componentType": 5126,
      "count": 65532,
      "max": [
        0.997967004776001,
        0.9979709982872009
      ],
      "min": [
        0.00406600022688508,
        0.004058999940752983
      ],
      "type": "VEC2"
    },
    {
      "bufferView": 0,
      "byteOffset": 2777844,
      "componentType": 5125,
      "count": 329649,
      "type": "SCALAR"
    },
    {
      "bufferView": 2,
      "byteOffset": 4718304,
      "componentType": 5126,
      "count": 32016,
      "max": [
        13.141307830810547,
        14.74032974243164,
        7.413415908813477
      ],
      "min": [
        7.185882568359375,
        0.0,
        3.516310214996338
      ],
      "type": "VEC3"
    },
    {
      "bufferView": 2,
      "byteOffset": 5102496,
      "componentType": 5126,
      "count": 32016,
      "max": [
        0.9999825954437256,
        0.999962329864502,
        0.9999939799308777
      ],
      "min": [
        -0.9999953508377075,
        -0.9999240040779114,
        -0.999954879283905
      ],
      "type": "VEC3"
    },
    {
      "bufferView": 1,
      "byteOffset": 1572768,
      "componentType": 5126,
      "count": 32016,
      "max": [
        0.997967004776001,
        0.9979709982872009
      ],
      "min": [
        0.00406600022688508,
        0.004058999940752983
      ],
      "type": "VEC2"
    },
    {
      "bufferView": 0,
      "byteOffset": 4096440,
      "componentType": 5125,
      "count": 161787,
      "type": "SCALAR"
    }
  ],
  "asset": {
    "extras": {
      "author": "Geoffrey Marchal (https://sketchfab.com/geoffreymarchal)",
      "license": "CC-BY-NC-SA-4.0 (http://creativecommons.org/licenses/by-nc-sa/4.0/)",
      "source": "https://sketchfab.com/3d-models/the-three-graces-437574a871ca4e56be5944d5f0390309",
      "title": "The Three Graces"
    },
    "generator": "Sketchfab-15.12.0",
    "version": "2.0"
  },
  "bufferViews": [
    {
      "buffer": 0,
      "byteLength": 4743588,
      "name": "floatBufferViews",
      "target": 34963
    },
    {
      "buffer": 0,
      "byteLength": 1828896,
      "byteOffset": 4743588,
      "byteStride": 8,
      "name": "floatBufferViews",
      "target": 34962
    },
    {
      "buffer": 0,
      "byteLength": 5486688,
      "byteOffset": 6572484,
      "byteStride": 12,
      "name": "floatBufferViews",
      "target": 34962
    }
  ],
  "buffers": [
    {
      "byteLength": 12059172,
      "uri": "scene.bin"
    }
  ],
  "extensionsUsed": [
    "KHR_materials_specular"
  ],
  "images": [
    {
      "uri": "textures/Material_0_baseColor.jpeg"
    },
    {
      "uri": "textures/Material_0_metallicRoughness.png"
    },
    {
      "uri": "textures/Material_0_specularf0.png"
    }
  ],
  "materials": [
    {
      "doubleSided": true,
      "emissiveFactor": [
        0.7488567073,
        0.7488567073,
        0.7488567073
      ],
      "emissiveTexture": {
        "index": 2
      },
      "extensions": {
        "KHR_materials_specular": {
          "specularColorFactor": [
            1.0,
            1.0,
            1.0
          ],
          "specularFactor": 1.0,
          "specularTexture": {
            "index": 3
          }
        }
      },
      "name": "Material_0",
      "pbrMetallicRoughness": {
        "baseColorTexture": {
          "index": 0
        },
        "metallicFactor": 0.0,
        "metallicRoughnessTexture": {
          "index": 1
        }
      }
    }
  ],
  "meshes": [
    {
      "name": "Object_0",
      "primitives": [
        {
          "attributes": {
            "NORMAL": 1,
            "POSITION": 0,
            "TEXCOORD_0": 2
          },
          "indices": 3,
          "material": 0,
          "mode": 4
        }
      ]
    },
    {
      "name": "Object_1",
      "primitives": [
        {
          "attributes": {
            "NORMAL": 5,
            "POSITION": 4,
            "TEXCOORD_0": 6
          },
          "indices": 7,
          "material": 0,
          "mode": 4
        }
      ]
    },
    {
      "name": "Object_2",
      "primitives": [
        {
          "attributes": {
            "NORMAL": 9,
            "POSITION": 8,
            "TEXCOORD_0": 10
          },
          "indices": 11,
          "material": 0,
          "mode": 4
        }
      ]
    },
    {
      "name": "Object_3",
      "primitives": [
        {
          "attributes": {
            "NORMAL": 13,
            "POSITION": 12,
            "TEXCOORD_0": 14
          },
          "indices": 15,
          "material": 0,
          "mode": 4
        }
      ]
    }
  ],
  "nodes": [
    {
      "children": [
        1
      ],
      "matrix": [
        -0.7976371049880981,
        -0.03254539519548403,
        -0.6022589206695557,
        0.0,
        0.007855824194848537,
        -0.9990189671516418,
        0.04358153790235497,
        0.0,
        -0.6030864715576172,
        0.030031012371182265,
        0.7971103191375732,
        0.0,
        0.0,
        0.0,
        0.0,
        1.0
      ],
      "name": "Sketchfab_model"
    },
    {
      "children": [
        2,
        3,
        4,
        5
      ],
      "matrix": [
        1.0,
        0.0,
        0.0,
        0.0,
        0.0,
        1.0,
        0.0,
        0.0,
        0.0,
        0.0,
        1.0,
        0.0,
        -8.922808647155762,
        -24.13620376586914,
        -5.580809116363525,
        1.0
      ],
      "name": "3grace.obj.cleaner.gles"
    },
    {
      "mesh": 0,
      "name": "Object_2"
    },
    {
      "mesh": 1,
      "name": "Object_3"
    },
    {
      "mesh": 2,
      "name": "Object_4"
    },
    {
      "mesh": 3,
      "name": "Object_5"
    }
  ],
  "samplers": [
    {
      "magFilter": 9729,
      "minFilter": 9987,
      "wrapS": 10497,
      "wrapT": 10497
    },
    {
      "magFilter": 9729,
      "minFilter": 9729,
      "wrapS": 10497,
      "wrapT": 10497
    }
  ],
  "scene": 0,
  "scenes": [
    {
      "name": "Sketchfab_Scene",
      "nodes": [
        0
      ]
    }
  ],
  "textures": [
    {
      "sampler": 0,
      "source": 0
    },
    {
      "sampler": 1,
      "source": 1
    },
    {
      "sampler": 1,
      "source": 0
    },
    {
      "sampler": 1,
      "source": 2
    }
  ]
}
