{
  "accessors": [
    {
      "bufferView": 2,
      "componentType": 5126,
      "count": 65532,
      "max": [
        5.55319881439209,
        -4.6680731773376465,
        3.9550600051879883
      ],
      "min": [
        -2.4140141010284424,
        -19.22785186767578,
        -6.405167102813721
      ],
      "type": "VEC3"
    },
    {
      "bufferView": 2,
      "byteOffset": 786384,
      "componentType": 5126,
      "count": 65532,
      "max": [
        0.9999987483024597,
        0.9982903599739075,
        1.0
      ],
      "min": [
        -0.9999701380729675,
        -0.9999914765357971,
        -0.9999697804450989
      ],
      "type": "VEC3"
    },
    {
      "bufferView": 1,
      "componentType": 5126,
      "count": 65532,
      "max": [
        0.9972149729728699,
        0.9999020099639893
      ],
      "min": [
        9.200000204145908e-05,
        0.0020600000862032175
      ],
      "type": "VEC2"
    },
    {
      "bufferView": 0,
      "componentType": 5125,
      "count": 299580,
      "type": "SCALAR"
    },
    {
      "bufferView": 2,
      "byteOffset": 1572768,
      "componentType": 5126,
      "count": 65532,
      "max": [
        5.7010178565979,
        -4.6680731773376465,
        4.037747859954834
      ],
      "min": [
        -2.3196940422058105,
        -19.18701171875,
        -6.394501209259033
      ],
      "type": "VEC3"
    },
    {
      "bufferView": 2,
      "byteOffset": 2359152,
      "componentType": 5126,
      "count": 65532,
      "max": [
        0.9999183416366577,
        0.9993356466293335,
        0.999975860118866
      ],
      "min": [
        -0.9999886155128479,
        -0.9999926090240479,
        -0.9999618530273438
      ],
      "type": "VEC3"
    },
    {
      "bufferView": 1,
      "byteOffset": 524256,
      "componentType": 5126,
      "count": 65532,
      "max": [
        0.9997779726982117,
        0.9998959898948669
      ],
      "min": [
        9.600000339560211e-05,
        0.00025499999173916876
      ],
      "type": "VEC2"
    },
    {
      "bufferView": 0,
      "byteOffset": 1198320,
      "componentType": 5125,
      "count": 290208,
      "type": "SCALAR"
    },
    {
      "bufferView": 2,
      "byteOffset": 3145536,
      "componentType": 5126,
      "count": 65532,
      "max": [
        5.731977939605713,
        -4.73917293548584,
        4.011767864227295
      ],
      "min": [
        -2.398292064666748,
        -19.27809715270996,
        -6.401142120361328
      ],
      "type": "VEC3"
    },
    {
      "bufferView": 2,
      "byteOffset": 3931920,
      "componentType": 5126,
      "count": 65532,
      "max": [
        0.9999898672103882,
        0.9986791014671326,
        0.9999601244926453
      ],
      "min": [
        -0.9999811053276062,
        -0.9999951124191284,
        -0.9999786615371704
      ],
      "type": "VEC3"
    },
    {
      "bufferView": 1,
      "byteOffset": 1048512,
      "componentType": 5126,
      "count": 65532,
      "max": [
        0.999809980392456,
        0.9999060034751892
      ],
      "min": [
        9.600000339560211e-05,
        0.00045200000749900937
      ],
      "type": "VEC2"
    },
    {
      "bufferView": 0,
      "byteOffset": 2359152,
      "componentType": 5125,
      "count": 266943,
      "type": "SCALAR"
    },
    {
      "bufferView": 2,
      "byteOffset": 4718304,
      "componentType": 5126,
      "count": 59115,
      "max": [
        5.731977939605713,
        -4.700039863586426,
        4.019443035125732
      ],
      "min": [
        -2.4115428924560547,
        -19.285301208496094,
        -6.40268611907959
      ],
      "type": "VEC3"
    },
    {
      "bufferView": 2,
      "byteOffset": 5427684,
      "componentType": 5126,
      "count": 59115,
      "max": [
        0.9999644756317139,
        0.9998623728752136,
        0.999975860118866
      ],
      "min": [
        -0.9999886155128479,
        -0.9999964833259583,
        -0.9999786615371704
      ],
      "type": "VEC3"
    },
    {
      "bufferView": 1,
      "byteOffset": 1572768,
      "componentType": 5126,
      "count": 59115,
      "max": [
        0.9997040033340454,
        0.9998800158500671
      ],
      "min": [
        0.00010800000018207356,
        0.00016900000628083944
      ],
      "type": "VEC2"
    },
    {
      "bufferView": 0,
      "byteOffset": 3426924,
      "componentType": 5125,
      "count": 171168,
      "type": "SCALAR"
    }
  ],
  "asset": {
    "extras": {
      "author": "Geoffrey Marchal (https://sketchfab.com/geoffreymarchal)",
      "license": "CC-BY-NC-SA-4.0 (http://creativecommons.org/licenses/by-nc-sa/4.0/)",
      "source": "https://sketchfab.com/3d-models/adoratio-2c3533b213ad4e3e9c352edaf560a3d7",
      "title": "Adoratio"
    },
    "generator": "Sketchfab-15.12.0",
    "version": "2.0"
  },
  "bufferViews": [
    {
      "buffer": 0,
      "byteLength": 4111596,
      "name": "floatBufferViews",
      "target": 34963
    },
    {
      "buffer": 0,
      "byteLength": 2045688,
      "byteOffset": 4111596,
      "byteStride": 8,
      "name": "floatBufferViews",
      "target": 34962
    },
    {
      "buffer": 0,
      "byteLength": 6137064,
      "byteOffset": 6157284,
      "byteStride": 12,
      "name": "floatBufferViews",
      "target": 34962
    }
  ],
  "buffers": [
    {
      "byteLength": 12294348,
      "uri": "scene.bin"
    }
  ],
  "extensionsUsed": [
    "KHR_materials_specular"
  ],
  "images": [
    {
      "uri": "textures/Adoratio_-_CleanUp_-_LowPoly_baseColor.jpeg"
    },
    {
      "uri": "textures/Adoratio_-_CleanUp_-_LowPoly_specularf0.png"
    }
  ],
  "materials": [
    {
      "doubleSided": true,
      "extensions": {
        "KHR_materials_specular": {
          "specularColorFactor": [
            1.0,
            1.0,
            1.0
          ],
          "specularFactor": 1.0,
          "specularTexture": {
            "index": 1
          }
        }
      },
      "name": "Adoratio_-_CleanUp_-_LowPoly",
      "pbrMetallicRoughness": {
        "baseColorTexture": {
          "index": 0
        },
        "metallicFactor": 0.0
      }
    }
  ],
  "meshes": [
    {
      "name": "Object_0",
      "primitives": [
        {
          "attributes": {
            "NORMAL": 1,
            "POSITION": 0,
            "TEXCOORD_0": 2
          },
          "indices": 3,
          "material": 0,
          "mode": 4
        }
      ]
    },
    {
      "name": "Object_1",
      "primitives": [
        {
          "attributes": {
            "NORMAL": 5,
            "POSITION": 4,
            "TEXCOORD_0": 6
          },
          "indices": 7,
          "material": 0,
          "mode": 4
        }
      ]
    },
    {
      "name": "Object_2",
      "primitives": [
        {
          "attributes": {
            "NORMAL": 9,
            "POSITION": 8,
            "TEXCOORD_0": 10
          },
          "indices": 11,
          "material": 0,
          "mode": 4
        }
      ]
    },
    {
      "name": "Object_3",
      "primitives": [
        {
          "attributes": {
            "NORMAL": 13,
            "POSITION": 12,
            "TEXCOORD_0": 14
          },
          "indices": 15,
          "material": 0,
          "mode": 4
        }
      ]
    }
  ],
  "nodes": [
    {
      "children": [
        1
      ],
      "matrix": [
        0.4292280077934265,
        -0.041749779134988584,
        -0.9022307395935059,
        0.0,
        -0.015962226316332817,
        -0.9991257190704346,
        0.03863960877060868,
        0.0,
        -0.9030551314353943,
        -0.002183591248467469,
        -0.4295191466808319,
        0.0,
        0.0,
        0.0,
        0.0,
        1.0
      ],
      "name": "Sketchfab_model"
    },
    {
      "children": [
        2,
        3,
        4,
        5
      ],
      "name": "Adoratio - CleanUp - LowPoly.obj.cleaner.materialmerger.gles"
    },
    {
      "mesh": 0,
      "name": "Object_2"
    },
    {
      "mesh": 1,
      "name": "Object_3"
    },
    {
      "mesh": 2,
      "name": "Object_4"
    },
    {
      "mesh": 3,
      "name": "Object_5"
    }
  ],
  "samplers": [
    {
      "magFilter": 9729,
      "minFilter": 9987,
      "wrapS": 10497,
      "wrapT": 10497
    }
  ],
  "scene": 0,
  "scenes": [
    {
      "name": "Sketchfab_Scene",
      "nodes": [
        0
      ]
    }
  ],
  "textures": [
    {
      "sampler": 0,
      "source": 0
    },
    {
      "sampler": 0,
      "source": 1
    }
  ]
}
