{
  "accessors": [
    {
      "bufferView": 2,
      "componentType": 5126,
      "count": 36817,
      "max": [
        9.947710037231445,
        5.646397113800049,
        13.846794128417969
      ],
      "min": [
        -15.082921981811523,
        -36.266868591308594,
        -8.372493743896484
      ],
      "type": "VEC3"
    },
    {
      "bufferView": 2,
      "byteOffset": 441804,
      "componentType": 5126,
      "count": 36817,
      "max": [
        0.9999783635139465,
        1.0,
        0.9998181462287903
      ],
      "min": [
        -0.9999804496765137,
        -0.9998887777328491,
        -0.9995689988136292
      ],
      "type": "VEC3"
    },
    {
      "bufferView": 1,
      "componentType": 5126,
      "count": 36817,
      "max": [
        0.9907140135765076,
        0.9989629983901978
      ],
      "min": [
        0.0010649999603629112,
        0.006558999884873629
      ],
      "type": "VEC2"
    },
    {
      "bufferView": 0,
      "componentType": 5125,
      "count": 205818,
      "type": "SCALAR"
    },
    {
      "bufferView": 2,
      "byteOffset": 883608,
      "componentType": 5126,
      "count": 56433,
      "max": [
        9.939569473266602,
        5.6868510246276855,
        21.132131576538086
      ],
      "min": [
        -15.150148391723633,
        -36.274662017822266,
        -10.636161804199219
      ],
      "type": "VEC3"
    },
    {
      "bufferView": 2,
      "byteOffset": 1560804,
      "componentType": 5126,
      "count": 56433,
      "max": [
        0.9999562501907349,
        0.9999996423721313,
        0.9999434947967529
      ],
      "min": [
        -0.999904453754425,
        -0.9999974966049194,
        -0.999995768070221
      ],
      "type": "VEC3"
    },
    {
      "bufferView": 1,
      "byteOffset": 294536,
      "componentType": 5126,
      "count": 56433,
      "max": [
        0.9989330172538757,
        0.9990180134773254
      ],
      "min": [
        0.0009879999561235309,
        0.09406600147485733
      ],
      "type": "VEC2"
    },
    {
      "bufferView": 0,
      "byteOffset": 823272,
      "componentType": 5125,
      "count": 300885,
      "type": "SCALAR"
    },
    {
      "bufferView": 2,
      "byteOffset": 2238000,
      "componentType": 5126,
      "count": 65532,
      "max": [
        9.317267417907715,
        0.520097017288208,
        21.106538772583008
      ],
      "min": [
        -13.26369571685791,
        -36.251136779785156,
        -10.672591209411621
      ],
      "type": "VEC3"
    },
    {
      "bufferView": 2,
      "byteOffset": 3024384,
      "componentType": 5126,
      "count": 65532,
      "max": [
        0.9999956488609314,
        0.9999985098838806,
        0.9999843835830688
      ],
      "min": [
        -0.999680757522583,
        -0.9998987913131714,
        -0.999987006187439
      ],
      "type": "VEC3"
    },
    {
      "bufferView": 1,
      "byteOffset": 746000,
      "componentType": 5126,
      "count": 65532,
      "max": [
        0.9924370050430298,
        0.9989920258522034
      ],
      "min": [
        0.0010010000551119447,
        0.09830199927091599
      ],
      "type": "VEC2"
    },
    {
      "bufferView": 0,
      "byteOffset": 2026812,
      "componentType": 5125,
      "count": 349218,
      "type": "SCALAR"
    },
    {
      "bufferView": 2,
      "byteOffset": 3810768,
      "componentType": 5126,
      "count": 35899,
      "max": [
        8.137804985046387,
        5.685153961181641,
        21.100982666015625
      ],
      "min": [
        -13.324861526489258,
        -36.251136779785156,
        -9.915133476257324
      ],
      "type": "VEC3"
    },
    {
      "bufferView": 2,
      "byteOffset": 4241556,
      "componentType": 5126,
      "count": 35899,
      "max": [
        0.999937891960144,
        0.9998908638954163,
        0.9999245405197144
      ],
      "min": [
        -0.9999487400054932,
        -0.9999988675117493,
        -0.9998284578323364
      ],
      "type": "VEC3"
    },
    {
      "bufferView": 1,
      "byteOffset": 1270256,
      "componentType": 5126,
      "count": 35899,
      "max": [
        0.984565019607544,
        0.9989640116691589
      ],
      "min": [
        0.000977999996393919,
        0.02605300024151802
      ],
      "type": "VEC2"
    },
    {
      "bufferView": 0,
      "byteOffset": 3423684,
      "componentType": 5125,
      "count": 173379,
      "type": "SCALAR"
    }
  ],
  "asset": {
    "extras": {
      "author": "Geoffrey Marchal (https://sketchfab.com/geoffreymarchal)",
      "license": "CC-BY-NC-SA-4.0 (http://creativecommons.org/licenses/by-nc-sa/4.0/)",
      "source": "https://sketchfab.com/3d-models/bust-of-a-roman-c17ae64048004e0c97ebb2f1596eb8c8",
      "title": "Bust of a Roman"
    },
    "generator": "Sketchfab-15.12.0",
    "version": "2.0"
  },
  "bufferViews": [
    {
      "buffer": 0,
      "byteLength": 4117200,
      "name": "floatBufferViews",
      "target": 34963
    },
    {
      "buffer": 0,
      "byteLength": 1557448,
      "byteOffset": 4117200,
      "byteStride": 8,
      "name": "floatBufferViews",
      "target": 34962
    },
    {
      "buffer": 0,
      "byteLength": 4672344,
      "byteOffset": 5674648,
      "byteStride": 12,
      "name": "floatBufferViews",
      "target": 34962
    }
  ],
  "buffers": [
    {
      "byteLength": 10346992,
      "uri": "scene.bin"
    }
  ],
  "images": [
    {
      "uri": "textures/Material_0_baseColor.jpeg"
    },
    {
      "uri": "textures/Material_1_baseColor.jpeg"
    },
    {
      "uri": "textures/Material_2_baseColor.jpeg"
    }
  ],
  "materials": [
    {
      "doubleSided": true,
      "name": "Material_0",
      "pbrMetallicRoughness": {
        "baseColorTexture": {
          "index": 0
        },
        "metallicFactor": 0.0,
        "roughnessFactor": 0.6
      }
    },
    {
      "doubleSided": true,
      "name": "Material_1",
      "pbrMetallicRoughness": {
        "baseColorTexture": {
          "index": 1
        },
        "metallicFactor": 0.0,
        "roughnessFactor": 0.6
      }
    },
    {
      "doubleSided": true,
      "name": "Material_2",
      "pbrMetallicRoughness": {
        "baseColorTexture": {
          "index": 2
        },
        "metallicFactor": 0.0,
        "roughnessFactor": 0.6
      }
    }
  ],
  "meshes": [
    {
      "name": "Object_0",
      "primitives": [
        {
          "attributes": {
            "NORMAL": 1,
            "POSITION": 0,
            "TEXCOORD_0": 2
          },
          "indices": 3,
          "material": 0,
          "mode": 4
        }
      ]
    },
    {
      "name": "Object_1",
      "primitives": [
        {
          "attributes": {
            "NORMAL": 5,
            "POSITION": 4,
            "TEXCOORD_0": 6
          },
          "indices": 7,
          "material": 1,
          "mode": 4
        }
      ]
    },
    {
      "name": "Object_2",
      "primitives": [
        {
          "attributes": {
            "NORMAL": 9,
            "POSITION": 8,
            "TEXCOORD_0": 10
          },
          "indices": 11,
          "material": 2,
          "mode": 4
        }
      ]
    },
    {
      "name": "Object_3",
      "primitives": [
        {
          "attributes": {
            "NORMAL": 13,
            "POSITION": 12,
            "TEXCOORD_0": 14
          },
          "indices": 15,
          "material": 2,
          "mode": 4
        }
      ]
    }
  ],
  "nodes": [
    {
      "children": [
        1
      ],
      "matrix": [
        -0.0017152688157435897,
        0.0014827788641813646,
        0.02162916937396142,
        0.0,
        0.0001172215175269031,
        0.021697076703000584,
        -0.0014781380806591867,
        0.0,
        -0.0216796186331073,
        3.8175453230071753e-19,
        -0.0017192695694165094,
        0.0,
        0.0,
        0.0,
        0.0,
        1.0
      ],
      "name": "Sketchfab_model"
    },
    {
      "children": [
        2,
        3,
        4,
        5
      ],
      "name": "bb-exported.obj.cleaner"
    },
    {
      "mesh": 0,
      "name": "Object_2"
    },
    {
      "mesh": 1,
      "name": "Object_3"
    },
    {
      "mesh": 2,
      "name": "Object_4"
    },
    {
      "mesh": 3,
      "name": "Object_5"
    }
  ],
  "samplers": [
    {
      "magFilter": 9729,
      "minFilter": 9987,
      "wrapS": 10497,
      "wrapT": 10497
    }
  ],
  "scene": 0,
  "scenes": [
    {
      "name": "Sketchfab_Scene",
      "nodes": [
        0
      ]
    }
  ],
  "textures": [
    {
      "sampler": 0,
      "source": 0
    },
    {
      "sampler": 0,
      "source": 1
    },
    {
      "sampler": 0,
      "source": 2
    }
  ]
}
